<?xml version="1.0" encoding="UTF-8" standalone="no"?>
<!-- Created with Inkscape (http://www.inkscape.org/) -->

<svg
   width="600"
   height="600"
   viewBox="0 0 158.75 158.75"
   version="1.1"
   id="svg1"
   inkscape:version="1.3 (0e150ed6c4, 2023-07-21)"
   sodipodi:docname="logo.svg"
   xml:space="preserve"
   inkscape:export-filename="helmet-white.svg"
   inkscape:export-xdpi="96"
   inkscape:export-ydpi="96"
   xmlns:inkscape="http://www.inkscape.org/namespaces/inkscape"
   xmlns:sodipodi="http://sodipodi.sourceforge.net/DTD/sodipodi-0.dtd"
   xmlns="http://www.w3.org/2000/svg"
   xmlns:svg="http://www.w3.org/2000/svg"><sodipodi:namedview
     id="namedview1"
     pagecolor="#ffffff"
     bordercolor="#000000"
     borderopacity="0.25"
     inkscape:showpageshadow="2"
     inkscape:pageopacity="0.0"
     inkscape:pagecheckerboard="0"
     inkscape:deskcolor="#d1d1d1"
     inkscape:document-units="mm"
     inkscape:zoom="0.48441477"
     inkscape:cx="473.76755"
     inkscape:cy="211.59553"
     inkscape:window-width="1920"
     inkscape:window-height="1046"
     inkscape:window-x="-11"
     inkscape:window-y="-11"
     inkscape:window-maximized="1"
     inkscape:current-layer="g429" /><defs
     id="defs1" /><g
     inkscape:label="Layer 1"
     inkscape:groupmode="layer"
     id="layer1"><g
       id="g429"
       transform="translate(-0.23075305,-0.445958)"><path
         style="fill:#ececec;fill-opacity:1;fill-rule:evenodd;stroke:#ffd600;stroke-width:0;stroke-miterlimit:3.3;stroke-dasharray:none;stroke-opacity:1;paint-order:markers fill stroke"
         d="m 76.505233,130.45953 c -0.960713,-0.12446 -2.128197,-0.40593 -2.594409,-0.62549 -0.466214,-0.21957 -1.30851,-0.48451 -1.871768,-0.58877 -0.563261,-0.10426 -1.02411,-0.2828 -1.02411,-0.39677 0,-0.11397 -0.583745,-0.36514 -1.297207,-0.55818 -0.713462,-0.19303 -1.420098,-0.44225 -1.570299,-0.55381 -0.150204,-0.11158 -0.934093,-0.39781 -1.741975,-0.63608 -0.807881,-0.23827 -1.606687,-0.54202 -1.775121,-0.67501 -0.168436,-0.13299 -0.797819,-0.39145 -1.39863,-0.57435 -0.600813,-0.18291 -1.592736,-0.55792 -2.204278,-0.83335 -0.611539,-0.27545 -1.563963,-0.58561 -2.116492,-0.68927 -0.552529,-0.10366 -1.004599,-0.27546 -1.004599,-0.3818 0,-0.10634 -0.614466,-0.36066 -1.36548,-0.56517 -0.751015,-0.2045 -1.36548,-0.45791 -1.36548,-0.56314 0,-0.10521 -0.583743,-0.33797 -1.297205,-0.51723 -2.829935,-0.71102 -4.01737,-1.80595 -4.69742,-4.33147 -0.165783,-0.61567 -0.404117,-1.18286 -0.529635,-1.26044 -0.125516,-0.0776 -0.388734,-0.72795 -0.584922,-1.44528 -0.196192,-0.71734 -0.581504,-1.73213 -0.85625,-2.2551 -0.274746,-0.52297 -0.574887,-1.3525 -0.66698,-1.8434 -0.09209,-0.4909 -0.249828,-0.89254 -0.350523,-0.89254 -0.100695,0 -0.353349,-0.58374 -0.561451,-1.2972 -0.487024,-1.66971 -1.451515,-3.2029 -2.400832,-3.81644 -1.108117,-0.71617 -1.918377,-1.68521 -2.674504,-3.19862 l -0.673645,-1.34831 V 84.141118 c 0,-9.059153 0.09821,-16.471188 0.218234,-16.471188 0.120028,0 0.383344,-0.456602 0.585145,-1.014672 0.2018,-0.558072 0.836062,-1.465434 1.409472,-2.016366 0.955778,-0.91831 1.056563,-1.15779 1.210789,-2.876944 0.09253,-1.031388 0.267843,-2.121037 0.389591,-2.421443 0.121751,-0.300405 0.37419,-1.406443 0.560977,-2.457862 0.186786,-1.051417 0.432697,-2.034564 0.546468,-2.184765 0.113771,-0.150204 0.432361,-1.010457 0.707978,-1.911673 0.275616,-0.901216 0.572894,-1.700022 0.660614,-1.775122 0.08772,-0.0751 0.331086,-0.560199 0.540808,-1.077991 0.343728,-0.848641 1.382866,-2.801295 2.260314,-4.247378 0.959753,-1.581727 3.327744,-4.376319 5.615663,-6.627349 1.417052,-1.394206 2.618605,-2.492777 2.670111,-2.441271 0.05151,0.05151 0.22914,1.067803 0.394742,2.258436 0.165603,1.19063 0.395534,2.226852 0.510961,2.302716 0.115427,0.07586 0.300188,0.629507 0.410583,1.230318 0.110395,0.60081 0.4968,1.718707 0.858682,2.484213 0.361878,0.765508 0.65796,1.588928 0.65796,1.829826 0,0.240898 0.160835,0.536273 0.357407,0.656389 0.196575,0.120116 0.517467,0.614781 0.713097,1.099254 0.242015,0.599345 0.651465,0.987816 1.281168,1.215519 0.509014,0.18406 0.925478,0.432864 0.925478,0.552892 0,0.120028 0.424344,0.218234 0.942986,0.218234 2.165488,0 3.917722,-1.502942 4.162578,-3.570356 0.13588,-1.147305 0.01707,-1.603 -0.934265,-3.582969 -0.599466,-1.247664 -1.241623,-2.882948 -1.427011,-3.633962 -0.185391,-0.751012 -0.456399,-1.617816 -0.602245,-1.926228 -0.145843,-0.308411 -0.288062,-1.758826 -0.316045,-3.223141 l -0.05087,-2.662393 1.502027,-0.551347 c 0.826116,-0.303242 2.300832,-0.758301 3.27715,-1.011248 0.976318,-0.252944 1.918695,-0.552484 2.094177,-0.665641 0.175477,-0.11316 1.937337,-0.349671 3.915246,-0.525582 2.776905,-0.246973 4.474887,-0.244581 7.453114,0.0105 2.121302,0.181681 3.923342,0.428831 4.004529,0.549219 0.08119,0.120386 0.946423,0.380892 1.922741,0.578901 0.976318,0.198009 1.898015,0.447243 2.048219,0.553852 0.150201,0.106611 0.867235,0.416116 1.593405,0.687787 l 1.320311,0.493948 -0.172691,1.934019 c -0.270008,3.023868 -0.746911,5.893909 -0.979366,5.893909 -0.116393,0 -0.295087,0.494009 -0.397095,1.097796 -0.10201,0.603787 -0.333062,1.248976 -0.513455,1.433753 -0.180393,0.184777 -0.496107,0.766083 -0.701593,1.291794 -0.205484,0.525708 -0.476803,1.072584 -0.602933,1.215276 -0.423124,0.478692 -0.235071,2.618552 0.32693,3.720166 0.407075,0.797938 0.773266,1.133748 1.365478,1.252191 0.445076,0.08901 0.809228,0.269375 0.809228,0.400804 0,0.400542 1.884045,0.266467 2.812793,-0.200168 0.4807,-0.241522 1.094798,-0.702371 1.36466,-1.024109 0.608322,-0.725258 2.271387,-4.161203 2.538547,-5.244714 0.10878,-0.441203 0.34857,-1.047972 0.53285,-1.348377 0.18428,-0.300406 0.41856,-1.219282 0.52062,-2.041946 0.10206,-0.822666 0.32152,-2.00406 0.48768,-2.625323 l 0.30211,-1.12957 0.955,0.850199 c 1.6396,1.459683 3.14046,2.982542 4.33687,4.400447 0.63369,0.751014 1.34033,1.580541 1.5703,1.843397 0.22997,0.262856 0.41812,0.558488 0.41812,0.656963 0,0.09847 0.28068,0.559321 0.62372,1.024109 0.34304,0.464786 0.77053,1.183021 0.94998,1.596078 0.17945,0.413057 0.43643,0.751015 0.57108,0.751015 0.13465,0 0.32308,0.391337 0.41874,0.86964 0.0957,0.478303 0.34102,1.062046 0.54524,1.297205 0.20422,0.235161 0.58771,1.103476 0.85218,1.929593 0.26448,0.826113 0.57382,1.62492 0.68743,1.775121 0.11361,0.150204 0.36626,1.010454 0.56145,1.911673 0.19518,0.901215 0.4379,1.700022 0.53936,1.775121 0.10147,0.0751 0.31709,1.41201 0.47918,2.970906 0.27028,2.599547 0.35667,2.882352 1.04275,3.413699 1.52918,1.18428 2.55056,2.411822 2.82303,3.392863 0.17753,0.639225 0.28102,7.051513 0.28198,17.472615 10e-4,14.23303 -0.0556,16.600324 -0.42064,17.478144 -0.23219,0.55843 -1.18461,1.75186 -2.11649,2.65207 -1.91878,1.85355 -2.16603,2.24285 -2.66773,4.20038 -0.19733,0.76996 -0.4323,1.39992 -0.52214,1.39992 -0.0898,0 -0.18164,0.24285 -0.204,0.53966 -0.0224,0.29681 -0.23285,1.28988 -0.46776,2.20682 -0.23491,0.91695 -0.42711,1.90303 -0.42711,2.19131 0,0.28827 0.29289,-1.66065 0.16659,-1.66065 -0.1263,0 -0.77447,2.84879 -0.95609,3.66037 -0.44267,1.97807 -1.49572,3.31151 -2.96557,3.75521 -0.63836,0.19269 -1.16066,0.42319 -1.16066,0.51221 0,0.089 -0.64518,0.32442 -1.43375,0.52314 -0.78856,0.19871 -1.86959,0.58036 -2.40229,0.84811 -0.5327,0.26775 -1.42367,0.57221 -1.97994,0.67657 -0.55628,0.10435 -1.01141,0.2795 -1.01141,0.38921 0,0.10972 -0.5223,0.35098 -1.160656,0.53615 -1.197861,0.34747 -4.089815,1.42546 -5.530191,2.0614 -0.450606,0.19895 -1.249412,0.45114 -1.775121,0.56041 -0.525711,0.10927 -1.411787,0.42947 -1.969066,0.71155 -0.557276,0.28207 -1.14776,0.51286 -1.312191,0.51286 -0.164425,0 -0.814509,0.23187 -1.44463,0.51527 -0.630121,0.2834 -1.545077,0.60039 -2.033235,0.70444 -0.488159,0.10404 -0.887564,0.2826 -0.887564,0.39678 0,0.22581 -4.678648,0.86297 -5.92388,0.80674 -0.421831,-0.019 -1.553004,-0.13645 -2.513719,-0.26091 z m 6.525929,-12.66369 c 3.160628,-0.40796 5.34929,-0.76788 5.598464,-0.92065 0.150204,-0.0921 1.010457,-0.43059 1.911673,-0.75222 2.562461,-0.91449 4.064699,-1.57213 4.457314,-1.95131 0.198482,-0.19169 0.527661,-0.34853 0.731507,-0.34853 0.203848,0 0.535559,-0.16493 0.737142,-0.36651 0.201581,-0.20159 0.671211,-0.52792 1.043617,-0.7252 0.848805,-0.44964 4.717561,-3.55975 7.283011,-5.85484 0.17859,-0.15977 0.95324,-0.84351 1.72145,-1.51942 0.76821,-0.67591 1.96103,-1.75123 2.65071,-2.38959 0.68968,-0.63836 1.3283,-1.16414 1.41915,-1.16839 0.0909,-0.004 0.74893,-0.55019 1.4624,-1.21318 l 1.2972,-1.205446 V 84.617625 c 0,-8.11961 -0.0779,-14.762927 -0.17314,-14.762927 -0.49215,0 -2.28472,0.661516 -2.28472,0.843134 0,0.115769 -0.67591,0.406985 -1.50203,0.647142 -0.82611,0.240159 -1.50203,0.556112 -1.50203,0.702117 0,0.146007 -0.2198,0.265469 -0.48844,0.265469 -0.26865,0 -0.97529,0.253228 -1.57031,0.562727 -0.59501,0.309499 -1.63487,0.754089 -2.31078,0.987975 -0.67591,0.233886 -1.29038,0.508939 -1.36548,0.611225 -0.0751,0.102288 -0.65884,0.338547 -1.2972,0.525015 -0.63836,0.18647 -1.160661,0.44332 -1.160661,0.570778 0,0.127455 -0.452067,0.316547 -1.0046,0.420203 -0.552529,0.103656 -1.504952,0.415711 -2.116492,0.693457 -0.611542,0.277746 -1.849252,0.657042 -2.750468,0.842886 -0.901215,0.18584 -1.771234,0.438134 -1.933373,0.560654 -0.162137,0.122521 -1.513962,0.373018 -3.004056,0.556663 -1.490091,0.183644 -2.787861,0.447804 -2.883934,0.587023 -0.264515,0.383304 -12.065429,0.329504 -12.193794,-0.05559 -0.0566,-0.169791 -0.43062,-0.307903 -0.831159,-0.306909 -1.101093,0.0027 -5.078688,-0.624787 -5.234337,-0.825783 -0.0751,-0.09698 -0.908227,-0.337494 -1.851393,-0.534474 -0.943163,-0.196982 -1.771274,-0.449456 -1.840243,-0.561051 -0.06897,-0.111599 -0.925626,-0.419513 -1.903677,-0.684261 -0.978051,-0.264744 -1.778275,-0.586009 -1.778275,-0.71392 0,-0.12791 -0.181264,-0.232563 -0.402807,-0.232563 -0.221541,0 -1.173964,-0.351861 -2.116492,-0.781918 C 56.902381,74.104644 55.85471,73.666235 55.516755,73.56046 55.1788,73.454682 54.90229,73.273151 54.90229,73.157063 c 0,-0.116094 -0.675913,-0.373224 -1.502027,-0.571408 -0.826116,-0.198183 -1.502029,-0.453718 -1.502029,-0.567862 0,-0.114141 -0.645189,-0.41987 -1.433753,-0.679391 -0.788564,-0.259522 -1.4952,-0.556504 -1.570299,-0.659956 -0.223436,-0.307776 -1.954607,-0.82945 -2.216137,-0.667814 -0.135366,0.08366 -0.241726,6.57969 -0.241726,14.763414 0,11.405108 0.0756,14.68469 0.344292,14.93588 0.189359,0.177022 0.895995,0.791744 1.570302,1.366054 2.640055,2.24853 3.602656,3.10101 4.911328,4.34945 0.747882,0.71346 1.484291,1.29721 1.636464,1.29721 0.152175,0 0.27668,0.0966 0.27668,0.21465 0,0.11806 0.508304,0.60532 1.129564,1.0828 0.62126,0.47749 1.635128,1.33957 2.253041,1.91574 1.459227,1.36066 4.670473,3.59388 5.667639,3.94149 0.429663,0.14979 0.781207,0.38321 0.781207,0.51872 0,0.13551 0.122565,0.24638 0.272367,0.24638 0.149802,0 1.040778,0.35719 1.979946,0.79376 0.939167,0.43656 2.137703,0.88088 2.663412,0.98737 0.525711,0.10648 1.07873,0.28719 1.228931,0.40157 0.393444,0.29961 3.650097,0.82135 5.126802,0.82135 0.692293,0 1.34039,0.13215 1.440212,0.29366 0.176697,0.28591 2.460236,0.22389 5.312656,-0.14429 z"
         id="path419"
         sodipodi:nodetypes="sssssssssssssssssssssssscssssssssssssssssssssssssssssscssssssssscssssssssssssssscssssssscsssssssscsssscsssssssssssssssssscsssssssssssscscsssssssssssssssssscsssssssssssssssssssssssssssssss" /><path
         style="fill:#f2f2f2;fill-opacity:1;fill-rule:evenodd;stroke:#ff0000;stroke-width:0;stroke-miterlimit:3.3;stroke-dasharray:none;stroke-opacity:1;paint-order:markers fill stroke"
         d="m 77.569244,113.00384 c 0,-0.1502 -0.344098,-0.27309 -0.764667,-0.27309 -0.420568,0 -0.91214,-0.14748 -1.092382,-0.32772 -0.429163,-0.42916 -0.420696,-1.7136 0.01365,-2.07131 0.197604,-0.16274 2.526586,-0.32193 5.530189,-0.378 3.139746,-0.0586 5.404514,-0.21766 5.735013,-0.40277 0.300407,-0.16826 1.157705,-0.45029 1.905108,-0.62674 0.747403,-0.17645 1.423315,-0.41301 1.502026,-0.52568 0.07871,-0.11269 0.567968,-0.37697 1.087234,-0.5873 0.519266,-0.21033 1.149861,-0.57204 1.401318,-0.80378 0.25146,-0.23175 0.771811,-0.66715 1.156338,-0.96755 0.487352,-0.38074 0.795213,-1.0012 1.016291,-2.04822 0.174432,-0.82612 0.423203,-1.74782 0.552825,-2.04822 0.129622,-0.30041 0.423699,-1.29918 0.653505,-2.219503 0.360593,-1.444091 0.979797,-2.794032 3.240993,-7.065756 1.328315,-2.509377 1.421515,-2.937526 2.108545,-9.686869 0.17538,-1.722912 0.41444,-3.383929 0.53124,-3.691147 0.21667,-0.569891 1.99372,-1.592543 3.34682,-1.926021 0.41306,-0.101801 0.75102,-0.280334 0.75102,-0.396745 0,-0.38734 1.35761,-0.477838 1.84307,-0.12286 0.43769,0.320043 0.47824,1.06367 0.47824,8.769408 0,4.630841 -0.0996,8.890754 -0.22144,9.466472 -0.13742,0.64956 -0.82985,1.641849 -1.70604,2.548768 -0.57138,0.591418 -1.2209,1.146532 -1.84561,1.546622 -1.58133,1.012751 -5.457131,4.757501 -6.94655,6.711671 -1.457775,1.91264 -2.063012,2.56439 -3.000992,3.23161 -1.329465,0.94569 -3.101602,1.87407 -4.303694,2.25462 -0.60081,0.1902 -1.215276,0.43757 -1.36548,0.54972 -0.36222,0.27046 -3.60976,0.8173 -4.853704,0.8173 -0.542092,0 -1.061575,0.12289 -1.154404,0.27309 -0.09421,0.15243 -1.368316,0.2731 -2.883625,0.2731 -1.62783,0 -2.714842,-0.10935 -2.714842,-0.2731 z"
         id="path420"
         sodipodi:nodetypes="ssssssssssssssssssssscsssssssssss" /><path
         style="fill:#cccccc;fill-opacity:1;fill-rule:evenodd;stroke:none;stroke-width:0;stroke-miterlimit:3.3;stroke-dasharray:none;paint-order:markers fill stroke"
         d="m 76.203767,130.28907 c -1.09087,-0.18938 -4.523865,-1.32847 -7.919781,-2.62783 -1.72733,-0.66092 -4.553874,-1.7282 -6.281203,-2.37174 -6.108771,-2.27591 -9.432377,-3.56814 -10.315821,-4.01084 -1.099278,-0.55086 -1.651116,-1.42978 -2.880627,-4.58802 -4.248521,-10.91317 -3.87908,-10.15499 -5.835327,-11.97542 -0.886037,-0.82452 -1.853065,-2.08339 -2.337584,-3.04306 l -0.826381,-1.63677 0.200983,-16.058245 c 0.222623,-17.786926 0.09822,-16.667279 2.124501,-19.120657 0.900203,-1.089948 1.11859,-1.597257 1.29317,-3.004055 0.770694,-6.210295 3.474196,-13.214207 6.829837,-17.693928 1.420186,-1.895922 6.397358,-7.07531 6.79907,-7.07531 0.129349,0 0.319558,0.645189 0.422682,1.433753 0.340738,2.605519 2.114852,7.721904 3.413144,9.843198 1.182515,1.932125 3.870174,2.669104 5.689203,1.560029 2.133462,-1.300787 2.502855,-3.492013 1.119878,-6.643005 -1.682203,-3.832741 -2.180537,-5.654776 -2.341774,-8.56207 l -0.154051,-2.777736 3.520093,-1.123043 c 4.46069,-1.423127 7.055927,-1.750512 12.532259,-1.580927 4.61204,0.142819 7.515699,0.719746 11.231885,2.231657 l 1.587146,0.645718 -0.06892,1.189008 c -0.231153,3.987742 -1.003937,7.083084 -2.516385,10.079231 -1.874343,3.713046 -0.384456,7.031077 3.175862,7.072765 1.442834,0.01691 2.716866,-0.834581 3.657986,-2.444745 1.18822,-2.032926 2.660338,-5.999199 3.141948,-8.465203 0.24926,-1.276303 0.49761,-2.364957 0.55188,-2.419231 0.0543,-0.05428 0.6959,0.404894 1.42583,1.020379 1.89742,1.59993 5.13167,5.406093 6.44739,7.587493 0.61933,1.026805 1.28119,2.029312 1.47081,2.227794 0.18961,0.198483 0.34551,0.505717 0.34644,0.682742 7.9e-4,0.177024 0.19479,0.690541 0.43081,1.14115 1.37086,2.6172 2.66912,6.891748 3.23282,10.644084 l 0.40569,2.700552 1.40628,1.384009 c 2.3725,2.334924 2.20437,0.829969 2.2124,19.804181 0.008,19.294962 0.26236,17.372622 -2.7247,20.604872 -1.65483,1.79068 -1.35059,0.91904 -2.02584,3.13269 -0.40945,1.34225 -1.63075,6.18183 -1.84676,7.15814 -0.57633,2.60494 -1.48964,3.74408 -2.21642,4.51771 -0.6888,0.73319 -2.24044,1.50023 -4.61098,2.27939 -0.82611,0.27153 -2.30083,0.79579 -3.27715,1.16501 -0.97631,0.36923 -3.679962,1.37529 -6.008102,2.23568 -2.328143,0.8604 -5.154684,1.90797 -6.281206,2.32795 -1.126519,0.41997 -2.662684,0.97464 -3.413699,1.23259 -0.751012,0.25795 -1.572503,0.57703 -1.825535,0.70905 -1.203984,0.6282 -6.703068,1.00313 -8.961749,0.61101 z m 8.602519,-12.63391 c 3.804581,-0.57332 7.51033,-1.80577 10.678894,-3.53336 0.701249,-0.38234 1.376188,-0.78893 2.020063,-1.218 1.781594,-1.18722 4.822147,-3.66665 8.905397,-7.26194 1.96901,-1.73372 4.3347,-3.80464 5.25709,-4.60206 l 1.67707,-1.44986 V 84.722318 c 0,-14.390804 -0.0165,-14.86762 -0.51553,-14.86762 -0.44904,0 -1.47246,0.416038 -5.08293,2.066319 -0.45061,0.205962 -1.74099,0.758036 -2.86751,1.22683 -2.4108,1.003239 -4.33681,1.84603 -4.931975,2.158156 -0.573412,0.30072 -4.92103,1.762009 -6.921296,2.326339 -0.886698,0.25016 -3.344561,0.750821 -5.461918,1.112583 -4.111048,0.702392 -9.77161,0.870405 -12.725355,0.377709 C 74.012173,78.984831 72.41456,78.742356 71.288041,78.583796 68.487472,78.18961 61.845724,76.263604 60.216322,75.373162 59.922152,75.212404 58.759769,74.709738 57.633247,74.256123 56.506728,73.802508 55.098195,73.17964 54.503176,72.871964 53.908158,72.56429 53.228866,72.31256 52.993641,72.31256 c -0.235225,0 -0.670092,-0.161189 -0.966367,-0.3582 -0.772369,-0.513591 -4.681595,-2.099662 -5.17508,-2.099662 -0.36734,0 -0.415875,1.733804 -0.415875,14.856097 v 14.856097 l 3.891616,3.421528 c 10.254586,9.01589 11.716723,10.12748 16.044381,12.19771 2.372381,1.13488 6.063316,2.19741 8.513894,2.45095 1.360969,0.1408 2.541897,0.32341 2.624278,0.4058 0.315383,0.31538 3.890904,0.12537 7.295798,-0.38772 z"
         id="path421"
         sodipodi:nodetypes="ssssssscsssssssssscssscssssssssscsscscssssssssssssssssscsssssssssssssssscsssss" /><path
         style="fill:#ececec;fill-opacity:1;fill-rule:evenodd;stroke:#ff0000;stroke-width:0;stroke-miterlimit:3.3;stroke-dasharray:none;stroke-opacity:1;paint-order:markers fill stroke"
         d="m 78.52508,113.00712 c -0.751014,-0.11984 -1.711227,-0.35386 -2.133808,-0.52005 -0.654416,-0.25737 -0.75564,-0.43378 -0.682739,-1.1899 l 0.08559,-0.88774 1.91167,-0.1709 c 1.05142,-0.094 3.209626,-0.18616 4.796017,-0.20482 3.442542,-0.0405 6.386828,-0.73123 9.02597,-2.11754 2.721244,-1.42943 3.079392,-1.92726 4.200546,-5.83874 0.614836,-2.145048 1.727298,-4.982241 2.997247,-7.644108 1.110732,-2.32814 2.085577,-4.478771 2.166327,-4.779176 0.0807,-0.300406 0.39285,-2.646842 0.69355,-5.2143 0.30069,-2.567459 0.61885,-4.856065 0.707,-5.085787 0.17112,-0.445944 2.56142,-1.852678 3.14803,-1.852678 0.19315,0 0.57097,-0.198906 0.8396,-0.442013 0.77519,-0.70154 1.8156,-0.293711 2.01918,0.791501 0.092,0.490201 0.12807,4.584687 0.0802,9.098854 l -0.087,8.207576 -0.37113,0.560483 -0.37114,0.560482 c -0.40824,0.61653 -1.88296,2.03403 -3.27715,3.15 -2.46535,1.973376 -4.2546,3.759136 -7.814571,7.799316 -1.474534,1.67343 -2.098514,2.14227 -4.23344,3.18084 -2.623682,1.27635 -4.056241,1.70825 -7.902919,2.32233 -3.371676,0.53825 -4.34808,0.5076 -5.7971,0.27637 z"
         id="path422"
         sodipodi:nodetypes="csscssssscssssccccssssscc" /></g></g></svg>
